<svg width="19" height="22" viewBox="0 0 19 22" fill="none" xmlns="http://www.w3.org/2000/svg">
<path fill-rule="evenodd" clip-rule="evenodd" d="M8.99076 1.69821C9.26328 1.45737 9.64488 1.45737 9.91739 1.69821L16.7093 7.70071C16.8931 7.86317 17.0006 8.11296 17.0006 8.37758V17.8101C17.0006 18.4923 16.7621 19.1467 16.3375 19.6291C15.9129 20.1115 15.3371 20.3826 14.7367 20.3826H4.1715C3.57105 20.3826 2.99521 20.1115 2.57063 19.6291C2.14606 19.1467 1.90753 18.4923 1.90753 17.8101V8.37758C1.90753 8.11296 2.01505 7.86317 2.19887 7.70071L8.99076 1.69821ZM3.41684 8.79697V17.8101C3.41684 18.0375 3.49635 18.2556 3.63787 18.4164C3.7794 18.5772 3.97135 18.6676 4.1715 18.6676H14.7367C14.9368 18.6676 15.1288 18.5772 15.2703 18.4164C15.4118 18.2556 15.4913 18.0375 15.4913 17.8101V8.79697L9.45408 3.46141L3.41684 8.79697Z" fill="white"/>
<path fill-rule="evenodd" clip-rule="evenodd" d="M6.43546 10.9501C6.43546 10.4765 6.77333 10.0926 7.19011 10.0926H11.718C12.1348 10.0926 12.4727 10.4765 12.4727 10.9501V19.5251C12.4727 19.9987 12.1348 20.3826 11.718 20.3826C11.3013 20.3826 10.9634 19.9987 10.9634 19.5251V11.8076H7.94477V19.5251C7.94477 19.9987 7.6069 20.3826 7.19011 20.3826C6.77333 20.3826 6.43546 19.9987 6.43546 19.5251V10.9501Z" fill="white"/>
</svg>
