<svg width="19" height="22" viewBox="0 0 19 22" fill="none" xmlns="http://www.w3.org/2000/svg">
<g clip-path="url(#clip0)">
<path fill-rule="evenodd" clip-rule="evenodd" d="M9.45408 2.40494C7.8529 2.40494 6.31731 3.12769 5.18511 4.41419C4.0529 5.70069 3.41684 7.44556 3.41684 9.26494C3.41684 11.9215 4.93803 14.4993 6.60598 16.4999C7.42452 17.4817 8.24563 18.2854 8.86294 18.8439C9.09268 19.0518 9.29335 19.225 9.45408 19.3599C9.6148 19.225 9.81547 19.0518 10.0452 18.8439C10.6625 18.2854 11.4836 17.4817 12.3022 16.4999C13.9701 14.4993 15.4913 11.9215 15.4913 9.26494C15.4913 7.44556 14.8552 5.70069 13.723 4.41419C12.5908 3.12769 11.0553 2.40494 9.45408 2.40494ZM9.45408 20.4124C9.03547 21.1259 9.03528 21.1258 9.03506 21.1256L9.03291 21.124L9.02788 21.1201L9.01058 21.1068C8.99589 21.0955 8.97493 21.0792 8.94812 21.0581C8.89452 21.0159 8.8175 20.9545 8.7204 20.8748C8.52626 20.7155 8.25143 20.4829 7.92275 20.1856C7.26658 19.5918 6.38972 18.7342 5.51029 17.6794C3.78229 15.6068 1.90753 12.6109 1.90753 9.26494C1.90753 6.99071 2.70261 4.80962 4.11786 3.2015C5.53312 1.59338 7.45261 0.689941 9.45408 0.689941C11.4555 0.689941 13.375 1.59338 14.7903 3.2015C16.2055 4.80962 17.0006 6.99071 17.0006 9.26494C17.0006 12.6109 15.1259 15.6068 13.3979 17.6794C12.5184 18.7342 11.6416 19.5918 10.9854 20.1856C10.6567 20.4829 10.3819 20.7155 10.1878 20.8748C10.0907 20.9545 10.0136 21.0159 9.96003 21.0581C9.93323 21.0792 9.91227 21.0955 9.89757 21.1068L9.88028 21.1201L9.87525 21.124L9.87366 21.1252C9.87344 21.1253 9.87268 21.1259 9.45408 20.4124ZM9.45408 20.4124L9.87268 21.1259C9.6192 21.3179 9.28855 21.3176 9.03506 21.1256L9.45408 20.4124Z" fill="white"/>
<path fill-rule="evenodd" clip-rule="evenodd" d="M9.45404 7.54996C8.62047 7.54996 7.94473 8.31779 7.94473 9.26496C7.94473 10.2121 8.62047 10.98 9.45404 10.98C10.2876 10.98 10.9634 10.2121 10.9634 9.26496C10.9634 8.31779 10.2876 7.54996 9.45404 7.54996ZM6.43542 9.26496C6.43542 7.37062 7.78691 5.83496 9.45404 5.83496C11.1212 5.83496 12.4727 7.37062 12.4727 9.26496C12.4727 11.1593 11.1212 12.695 9.45404 12.695C7.78691 12.695 6.43542 11.1593 6.43542 9.26496Z" fill="white"/>
</g>
<defs>
<clipPath id="clip0">
<path d="M0.398193 9.7458C0.398193 4.74439 4.45264 0.689941 9.45405 0.689941C14.4555 0.689941 18.5099 4.74439 18.5099 9.7458V12.2141C18.5099 17.2155 14.4555 21.2699 9.45405 21.2699C4.45264 21.2699 0.398193 17.2155 0.398193 12.2141V9.7458Z" fill="white"/>
</clipPath>
</defs>
</svg>
