<svg width="19" height="22" viewBox="0 0 19 22" fill="none" xmlns="http://www.w3.org/2000/svg">
<path fill-rule="evenodd" clip-rule="evenodd" d="M3.76734 14.1708C4.47496 13.3668 5.43471 12.915 6.43544 12.915H12.4727C13.4734 12.915 14.4332 13.3668 15.1408 14.1708C15.8484 14.9749 16.246 16.0654 16.246 17.2025V18.9175C16.246 19.3911 15.9081 19.775 15.4913 19.775C15.0745 19.775 14.7366 19.3911 14.7366 18.9175V17.2025C14.7366 16.5203 14.4981 15.8659 14.0735 15.3835C13.649 14.9011 13.0731 14.63 12.4727 14.63H6.43544C5.835 14.63 5.25916 14.9011 4.83458 15.3835C4.41 15.8659 4.17148 16.5203 4.17148 17.2025V18.9175C4.17148 19.3911 3.83361 19.775 3.41683 19.775C3.00004 19.775 2.66217 19.3911 2.66217 18.9175V17.2025C2.66217 16.0654 3.05971 14.9749 3.76734 14.1708Z" fill="white"/>
<path fill-rule="evenodd" clip-rule="evenodd" d="M9.45406 4.34C8.20371 4.34 7.1901 5.49175 7.1901 6.9125C7.1901 8.33325 8.20371 9.485 9.45406 9.485C10.7044 9.485 11.718 8.33325 11.718 6.9125C11.718 5.49175 10.7044 4.34 9.45406 4.34ZM5.68079 6.9125C5.68079 4.54458 7.37014 2.625 9.45406 2.625C11.538 2.625 13.2273 4.54458 13.2273 6.9125C13.2273 9.28042 11.538 11.2 9.45406 11.2C7.37014 11.2 5.68079 9.28042 5.68079 6.9125Z" fill="white"/>
</svg>
